<?xml version="1.0" encoding="UTF-8"?>
<svg id="Layer_1" data-name="Layer 1" xmlns="http://www.w3.org/2000/svg" viewBox="0 0 32 31.14">
  <defs>
    <style>
      .cls-1 {
        fill: #fff;
      }
    </style>
  </defs>
  <path class="cls-1" d="M0,16.88c.13,1.96.58,3.88,1.42,5.7,1.88,4.08,5.38,7.17,9.61,8.53.23.07.55-.05.7-.16.17-.13.29-.39.29-.64l-.02-2.7c-2.41.53-4.62-.01-5.53-2.41-.29-.76-.79-1.43-1.42-1.91l-.75-.58c-.06-.05-.12-.26-.08-.33.19-.36,1.13-.25,1.84.12s1.1.94,1.51,1.57c.6.94,1.57,1.48,2.66,1.47.64-.02,1.24-.16,1.83-.42.11-.83.41-1.56,1-2.14-4.83-.51-7.24-2.84-7.29-7.82-.02-1.62.54-3.14,1.65-4.33-.52-1.38-.39-2.9.16-4.25,1.53-.1,3.11.82,4.38,1.66,2.63-.71,5.38-.72,8.02,0,.86-.58,1.72-1.06,2.68-1.41.55-.18,1.07-.3,1.69-.24.54,1.35.69,2.84.17,4.25,1.14,1.21,1.7,2.82,1.64,4.53-.04,1.14-.15,2.21-.55,3.27-1.11,3.01-3.73,4.02-6.75,4.34.75.69,1.08,1.82,1.07,2.85l-.02,4.44c0,.24.08.5.24.64.14.12.49.27.73.19,4.2-1.31,7.7-4.36,9.61-8.38.89-1.87,1.37-3.84,1.49-5.9v-1.76C31.52,6.55,24.42,0,16,0,7.61,0,.58,6.46,0,14.93"/>
</svg>