<?xml version="1.0" encoding="UTF-8"?>
<svg id="Layer_1" data-name="Layer 1" xmlns="http://www.w3.org/2000/svg" viewBox="0 0 30.55 32">
  <defs>
    <style>
      .cls-1 {
        fill: #fff;
      }
    </style>
  </defs>
  <path class="cls-1" d="M16.23,0l.3.06c3.68.3,7.09,2,9.66,4.75,5.8,6.2,5.81,16.13.03,22.34-2.58,2.77-6,4.49-9.69,4.79l-.3.06h-1.91l-.3-.06C6.61,31.33.63,25.08.05,17.32l-.05-.32.03-2.01c.24-4.16,2.02-8.02,4.97-10.83C7.58,1.7,10.87.25,14.33.02l1.9-.02ZM10.13,7.96c1.44.29,2.82.44,4.24.5V2.04c-1.27.46-2.15,1.57-2.86,2.72-.57,1.01-1.02,2.04-1.39,3.2ZM16.17,2.03v6.42c1.44-.06,2.83-.2,4.24-.5-.75-2.29-2.05-5.07-4.24-5.92ZM8.39,7.52c.54-1.77,1.27-3.34,2.29-4.8-2.06.76-3.76,1.99-5.23,3.6.94.5,1.9.87,2.95,1.19ZM25.09,6.32c-1.51-1.66-3.24-2.87-5.24-3.6,1.05,1.49,1.76,3.06,2.3,4.8,1.01-.31,2-.67,2.94-1.2ZM7.21,15.06c.06-2.01.28-3.86.7-5.74-1.28-.39-2.46-.86-3.62-1.51-1.45,2.14-2.3,4.63-2.47,7.26h5.39ZM23.34,15.06h5.38c-.16-2.63-1.02-5.11-2.46-7.26-1.17.67-2.38,1.13-3.62,1.53.44,1.93.64,3.8.7,5.73ZM14.38,15.06v-4.73c-1.62-.05-3.17-.23-4.74-.57-.39,1.76-.59,3.51-.65,5.3h5.38ZM16.17,15.06h5.38c-.06-1.81-.26-3.57-.65-5.3-1.58.34-3.13.51-4.73.57v4.73ZM7.9,22.66c-.45-1.98-.64-3.81-.7-5.73H1.82c.16,2.63,1.01,5.11,2.47,7.26,1.17-.68,2.38-1.12,3.62-1.53ZM14.38,21.67v-4.73s-5.38,0-5.38,0c.06,1.79.26,3.53.65,5.3,1.56-.33,3.12-.51,4.74-.57ZM20.9,22.23c.4-1.81.59-3.52.65-5.29h-5.38s0,4.73,0,4.73c1.62.05,3.17.24,4.74.56ZM26.26,24.19c1.45-2.15,2.3-4.63,2.46-7.26h-5.38c-.05,1.96-.28,3.85-.7,5.74,1.28.39,2.46.86,3.62,1.51ZM14.38,29.96v-6.42c-1.44.06-2.83.21-4.24.5.75,2.29,2.05,5.08,4.24,5.92ZM19.21,26.91c.49-.94.87-1.84,1.2-2.87-1.41-.29-2.8-.44-4.24-.5v6.42c1.37-.51,2.3-1.76,3.05-3.06ZM10.69,29.28c-1.05-1.49-1.76-3.05-2.3-4.8-1.01.3-1.99.68-2.95,1.19,1.48,1.63,3.23,2.86,5.24,3.61ZM25.09,25.67c-.99-.53-1.95-.89-2.94-1.19-.54,1.75-1.25,3.31-2.3,4.8,2.02-.75,3.77-1.97,5.24-3.61Z"/>
</svg>